<svg id="Layer_1" data-name="Layer 1" xmlns="http://www.w3.org/2000/svg" viewBox="0 0 150 30"><defs><style>.cls-1,.cls-2{fill:#0a2740;}.cls-2{fill-rule:evenodd;}</style></defs><path class="cls-1" d="M14.31,21a4.81,4.81,0,0,0,.3,1.82A3.33,3.33,0,0,0,15.39,24a3.4,3.4,0,0,0,1.05.67,4.84,4.84,0,0,0,1.11.3,5.66,5.66,0,0,0,.95.07L19,25l.21,0V22.72h-.43a3.16,3.16,0,0,1-.57-.06,1.84,1.84,0,0,1-.64-.26,1.58,1.58,0,0,1-.52-.61,2.36,2.36,0,0,1-.21-1.08V17.89a3.85,3.85,0,0,0-.2-1.25,3.08,3.08,0,0,0-.49-.86,2.62,2.62,0,0,0-.58-.54,2.48,2.48,0,0,0-.48-.27l-.2-.08v0l.2-.09a3.58,3.58,0,0,0,.48-.29,2.75,2.75,0,0,0,.58-.56,3.08,3.08,0,0,0,.49-.86,3.68,3.68,0,0,0,.2-1.23V9.25a2.28,2.28,0,0,1,.21-1.07,1.44,1.44,0,0,1,.52-.61,1.69,1.69,0,0,1,.64-.27,2,2,0,0,1,.57-.06h.43V5H18.5a5.66,5.66,0,0,0-.95.07,4.84,4.84,0,0,0-1.11.3,3.4,3.4,0,0,0-1.05.67,3.2,3.2,0,0,0-.78,1.16,4.74,4.74,0,0,0-.3,1.8v2a3.14,3.14,0,0,1-.22,1.2,2.05,2.05,0,0,1-.5.74,2.32,2.32,0,0,1-.6.4,1.88,1.88,0,0,1-.5.16l-.21,0V16.2l.21,0a3.1,3.1,0,0,1,.5.16,2,2,0,0,1,.6.39,2,2,0,0,1,.5.73,3,3,0,0,1,.22,1.17Z"/><path class="cls-2" d="M20.9,13.35A1.65,1.65,0,1,1,19.25,15,1.65,1.65,0,0,1,20.9,13.35Z"/><path class="cls-1" d="M34.08,21a5,5,0,0,1-.31,1.82A3.24,3.24,0,0,1,32,24.62a4.84,4.84,0,0,1-1.11.3,5.7,5.7,0,0,1-1,.07l-.52,0-.21,0V22.72h.42a3.26,3.26,0,0,0,.58-.06,1.92,1.92,0,0,0,.64-.26,1.65,1.65,0,0,0,.51-.61,2.48,2.48,0,0,0,.22-1.08V17.89a3.6,3.6,0,0,1,.2-1.25,3.06,3.06,0,0,1,.48-.86,3.15,3.15,0,0,1,.58-.54,2.51,2.51,0,0,1,.49-.27l.2-.08v0l-.2-.09a3.6,3.6,0,0,1-.49-.29,3.33,3.33,0,0,1-.58-.56,3.06,3.06,0,0,1-.48-.86,3.44,3.44,0,0,1-.2-1.23V9.25a2.4,2.4,0,0,0-.22-1.07,1.5,1.5,0,0,0-.51-.61,1.76,1.76,0,0,0-.64-.27,2.08,2.08,0,0,0-.58-.06h-.42V5h.73a5.7,5.7,0,0,1,1,.07,4.84,4.84,0,0,1,1.11.3,3.36,3.36,0,0,1,1,.67,3.2,3.2,0,0,1,.78,1.16A4.93,4.93,0,0,1,34.08,9v2a3,3,0,0,0,.21,1.2,2.05,2.05,0,0,0,.5.74,2.32,2.32,0,0,0,.6.4,1.94,1.94,0,0,0,.51.16l.21,0V16.2l-.21,0a3.17,3.17,0,0,0-.51.16,2,2,0,0,0-.6.39,2,2,0,0,0-.5.73,2.85,2.85,0,0,0-.21,1.17Z"/><path class="cls-2" d="M27.49,13.35A1.65,1.65,0,1,0,29.14,15,1.65,1.65,0,0,0,27.49,13.35Z"/><path class="cls-1" d="M48.34,14H45.13V10.41h3.38a2.94,2.94,0,0,1,1.74.44,1.5,1.5,0,0,1,.6,1.27,1.55,1.55,0,0,1-.68,1.38,3.31,3.31,0,0,1-1.83.45ZM49,19.59H45.13V15.93h3.72a3.59,3.59,0,0,1,2.07.48,1.71,1.71,0,0,1,0,2.72,3.35,3.35,0,0,1-1.89.46ZM67.49,15a5.13,5.13,0,0,1-.33,1.84,4.56,4.56,0,0,1-.92,1.5,4.23,4.23,0,0,1-1.42,1,4.6,4.6,0,0,1-3.66,0,4.63,4.63,0,0,1-1.43-1,4.74,4.74,0,0,1-.94-1.52,5.29,5.29,0,0,1,0-3.68,4.42,4.42,0,0,1,.93-1.5,4,4,0,0,1,1.42-1A4.36,4.36,0,0,1,63,10.25a4.44,4.44,0,0,1,1.83.38,4.56,4.56,0,0,1,1.44,1,4.71,4.71,0,0,1,.93,1.52A5.13,5.13,0,0,1,67.49,15Zm43.26,0a6.87,6.87,0,0,0-.52-2.67,6.65,6.65,0,0,0-1.43-2.19,6.72,6.72,0,0,0-2.19-1.48,7.16,7.16,0,0,0-2.82-.54,6.91,6.91,0,0,0-5,2.05,6.54,6.54,0,0,0-1.45,2.2,7.11,7.11,0,0,0,0,5.34,6.65,6.65,0,0,0,1.43,2.19,6.72,6.72,0,0,0,2.19,1.48,7.16,7.16,0,0,0,2.82.54,6.91,6.91,0,0,0,5-2,6.54,6.54,0,0,0,1.45-2.2,6.87,6.87,0,0,0,.52-2.67Zm10.79-2.11a2.17,2.17,0,0,1-.78,1.74,3.11,3.11,0,0,1-2.1.66h-2.73V10.46h2.73a3.35,3.35,0,0,1,2.09.6,2.12,2.12,0,0,1,.79,1.81ZM48.81,8.33h-6V21.67H49a7.94,7.94,0,0,0,2-.24,4.61,4.61,0,0,0,1.57-.7,3.33,3.33,0,0,0,1-1.15,3.85,3.85,0,0,0,.16-2.8,2.7,2.7,0,0,0-.54-.9,3.41,3.41,0,0,0-.84-.66,6.68,6.68,0,0,0-1.08-.49,5,5,0,0,0,.71-.45,3.31,3.31,0,0,0,.62-.62,3.06,3.06,0,0,0,.41-.83,3.33,3.33,0,0,0,.17-1.09A3,3,0,0,0,52,9.24a5.07,5.07,0,0,0-3.2-.91ZM70,15a7,7,0,0,0-.51-2.67A6.81,6.81,0,0,0,68,10.12a6.72,6.72,0,0,0-2.19-1.48A7.25,7.25,0,0,0,63,8.1a6.91,6.91,0,0,0-5,2.05,6.85,6.85,0,0,0-1.45,2.2,7.24,7.24,0,0,0,0,5.34,6.81,6.81,0,0,0,1.43,2.19,6.66,6.66,0,0,0,2.2,1.48A7.16,7.16,0,0,0,63,21.9a6.91,6.91,0,0,0,5-2,6.85,6.85,0,0,0,1.45-2.2A7,7,0,0,0,70,15Zm7.76-4.48h4.23V8.33H71.12V10.5h4.23V21.67h2.36V10.5Zm17.6,9L93.8,18a8,8,0,0,1-1.73,1.27,4.46,4.46,0,0,1-2.1.47,4.12,4.12,0,0,1-1.76-.38,4.19,4.19,0,0,1-1.41-1,4.84,4.84,0,0,1-.91-1.52A5.2,5.2,0,0,1,85.56,15a5.11,5.11,0,0,1,.33-1.85,4.59,4.59,0,0,1,.91-1.49,4.19,4.19,0,0,1,1.41-1A4.12,4.12,0,0,1,90,10.25a4.5,4.5,0,0,1,2,.46,7.68,7.68,0,0,1,1.69,1.2l1.51-1.73a8,8,0,0,0-1-.84A6.58,6.58,0,0,0,93,8.68a7,7,0,0,0-1.38-.43A8.64,8.64,0,0,0,90,8.1a7,7,0,0,0-2.79.54,6.67,6.67,0,0,0-3.59,3.69,7.47,7.47,0,0,0,0,5.4A6.85,6.85,0,0,0,85,19.91a6.69,6.69,0,0,0,4.85,2,8.22,8.22,0,0,0,1.71-.16A6.24,6.24,0,0,0,93,21.26a7.83,7.83,0,0,0,1.21-.74,9.76,9.76,0,0,0,1.08-1Zm13-4.52a4.93,4.93,0,0,1-.34,1.84,4.56,4.56,0,0,1-.92,1.5,4.13,4.13,0,0,1-1.42,1,4.36,4.36,0,0,1-1.82.38,4.44,4.44,0,0,1-1.83-.38,4.56,4.56,0,0,1-1.44-1,4.71,4.71,0,0,1-.93-1.52,5.15,5.15,0,0,1,0-3.68,4.56,4.56,0,0,1,.92-1.5,4.13,4.13,0,0,1,1.42-1,4.36,4.36,0,0,1,1.82-.38,4.44,4.44,0,0,1,1.83.38,4.56,4.56,0,0,1,1.44,1,4.71,4.71,0,0,1,.93,1.52,4.93,4.93,0,0,1,.34,1.84Zm15.63-2.21a4.73,4.73,0,0,0-.35-1.85,4.1,4.1,0,0,0-1-1.41,4.49,4.49,0,0,0-1.6-.91,6.68,6.68,0,0,0-2.11-.31h-5.26V21.67h2.34V17.38h2.65a7.36,7.36,0,0,0,2.08-.29,5.26,5.26,0,0,0,1.7-.87,4.11,4.11,0,0,0,1.14-1.43,4.44,4.44,0,0,0,.42-2Zm8.5,3.54,5.3-8H135l-3.77,5.91-3.74-5.91h-2.76l5.3,8.08v5.26h2.36Z"/></svg>