<svg id="Layer_1" data-name="Layer 1" xmlns="http://www.w3.org/2000/svg" viewBox="0 0 300 60"><defs><style>.cls-1,.cls-2{fill:#0a2740;}.cls-2{fill-rule:evenodd;}</style></defs><path class="cls-1" d="M46,38.23a6.68,6.68,0,0,0,.43,2.5,4.45,4.45,0,0,0,1.07,1.62,4.8,4.8,0,0,0,1.45.92,6.55,6.55,0,0,0,1.52.42,9.58,9.58,0,0,0,1.32.1l.73,0,.28,0V40.65h-.17l-.41,0a4,4,0,0,1-.79-.08,2.52,2.52,0,0,1-.89-.37,2.1,2.1,0,0,1-.71-.83,3.33,3.33,0,0,1-.29-1.5V34a5.18,5.18,0,0,0-.28-1.73,4.35,4.35,0,0,0-.67-1.19,4.07,4.07,0,0,0-.8-.73A3,3,0,0,0,47.1,30l-.28-.11v-.06l.28-.12a5.54,5.54,0,0,0,.67-.4,4.26,4.26,0,0,0,1.47-2,5,5,0,0,0,.28-1.7V22.07a3.29,3.29,0,0,1,.29-1.49,2.1,2.1,0,0,1,.71-.83,2.75,2.75,0,0,1,.89-.38,3.35,3.35,0,0,1,.79-.08,2.43,2.43,0,0,1,.41,0h.17V16.25l-.28,0-.73,0a9.58,9.58,0,0,0-1.32.1,7,7,0,0,0-1.52.41,4.83,4.83,0,0,0-1.45.93,4.36,4.36,0,0,0-1.07,1.6A6.66,6.66,0,0,0,46,21.74v2.78a4.1,4.1,0,0,1-.29,1.65,3,3,0,0,1-.69,1,3.06,3.06,0,0,1-.83.55,3.12,3.12,0,0,1-.69.22l-.29,0v3.65l.29,0a3.12,3.12,0,0,1,.69.22,2.8,2.8,0,0,1,.83.54,2.9,2.9,0,0,1,.69,1A3.93,3.93,0,0,1,46,35.08Z"/><path class="cls-2" d="M55.08,27.73A2.27,2.27,0,1,1,52.8,30,2.27,2.27,0,0,1,55.08,27.73Z"/><path class="cls-1" d="M73.26,38.23a6.9,6.9,0,0,1-.42,2.5,4.44,4.44,0,0,1-2.52,2.54,6.62,6.62,0,0,1-1.53.42,9.58,9.58,0,0,1-1.32.1l-.72,0-.29,0V40.65h.17l.42,0a4,4,0,0,0,.79-.08,2.48,2.48,0,0,0,.88-.37,2.1,2.1,0,0,0,.71-.83,3.47,3.47,0,0,0,.3-1.5V34A5,5,0,0,1,70,32.26a4.35,4.35,0,0,1,.67-1.19,4.07,4.07,0,0,1,.8-.73,3,3,0,0,1,.67-.38l.28-.11v-.06l-.28-.12a5.54,5.54,0,0,1-.67-.4,4.26,4.26,0,0,1-1.47-2,4.77,4.77,0,0,1-.27-1.7V22.07a3.42,3.42,0,0,0-.3-1.49,2.1,2.1,0,0,0-.71-.83,2.7,2.7,0,0,0-.88-.38,3.35,3.35,0,0,0-.79-.08,2.56,2.56,0,0,0-.42,0h-.17V16.25l.29,0,.72,0a9.58,9.58,0,0,1,1.32.1,7.12,7.12,0,0,1,1.53.41,4.67,4.67,0,0,1,1.44.93,4.51,4.51,0,0,1,1.08,1.6,6.88,6.88,0,0,1,.42,2.49v2.78a4.48,4.48,0,0,0,.29,1.65,3,3,0,0,0,.69,1,3.22,3.22,0,0,0,.83.55,3,3,0,0,0,.7.22,1.4,1.4,0,0,0,.29,0v3.65l-.29,0a3,3,0,0,0-.7.22,2.93,2.93,0,0,0-.83.54,2.9,2.9,0,0,0-.69,1,4.29,4.29,0,0,0-.29,1.61Z"/><path class="cls-2" d="M64.17,27.73A2.27,2.27,0,1,0,66.45,30,2.27,2.27,0,0,0,64.17,27.73Z"/><path class="cls-1" d="M94.71,28.1H88.9V21.67H95a5.23,5.23,0,0,1,3.16.81,2.69,2.69,0,0,1,1.09,2.3A2.79,2.79,0,0,1,98,27.29a6,6,0,0,1-3.32.81ZM96,38.33h-7V31.69h6.74a6.53,6.53,0,0,1,3.75.87A2.78,2.78,0,0,1,100.62,35a2.82,2.82,0,0,1-1.24,2.5,6,6,0,0,1-3.43.85Zm33.5-8.3a9.29,9.29,0,0,1-.6,3.34,8.41,8.41,0,0,1-1.68,2.73,7.82,7.82,0,0,1-2.57,1.83,8,8,0,0,1-3.31.68,8,8,0,0,1-5.92-2.56,8.32,8.32,0,0,1-1.7-2.75,9.57,9.57,0,0,1,0-6.67,8.25,8.25,0,0,1,1.68-2.73,7.82,7.82,0,0,1,2.57-1.83,8,8,0,0,1,3.31-.68A8,8,0,0,1,127.15,24a8.49,8.49,0,0,1,1.7,2.75,9.27,9.27,0,0,1,.6,3.33ZM207.9,30a12.69,12.69,0,0,0-.94-4.84,12.07,12.07,0,0,0-2.59-4,12.19,12.19,0,0,0-4-2.68,12.86,12.86,0,0,0-5.11-1,12.61,12.61,0,0,0-9.13,3.71,12.27,12.27,0,0,0-2.63,4,13.06,13.06,0,0,0,0,9.68,12.06,12.06,0,0,0,6.57,6.66,12.91,12.91,0,0,0,5.12,1,12.66,12.66,0,0,0,5.11-1,12.51,12.51,0,0,0,4-2.71,12.11,12.11,0,0,0,2.63-4A12.76,12.76,0,0,0,207.9,30Zm19.56-3.84a3.92,3.92,0,0,1-1.4,3.16,5.66,5.66,0,0,1-3.82,1.19H217.3V21.77h4.94a6.09,6.09,0,0,1,3.81,1.09,3.88,3.88,0,0,1,1.41,3.27ZM95.57,17.9H84.72V42.1h11.2a14.36,14.36,0,0,0,3.66-.43,8.62,8.62,0,0,0,2.84-1.28,5.84,5.84,0,0,0,1.81-2.09,6.16,6.16,0,0,0,.64-2.87,6.48,6.48,0,0,0-.34-2.2,4.77,4.77,0,0,0-1-1.64A6,6,0,0,0,102,30.4a11.63,11.63,0,0,0-2-.88,9.08,9.08,0,0,0,1.29-.83,5.4,5.4,0,0,0,1.11-1.13,5.55,5.55,0,0,0,.76-1.5,6,6,0,0,0,.29-2,5.42,5.42,0,0,0-2.14-4.53,9.22,9.22,0,0,0-5.81-1.66ZM133.91,30a12.68,12.68,0,0,0-.93-4.84,12,12,0,0,0-6.57-6.66,12.88,12.88,0,0,0-5.12-1,12.61,12.61,0,0,0-9.12,3.71,12.11,12.11,0,0,0-2.63,4,13.06,13.06,0,0,0,0,9.68,12,12,0,0,0,6.57,6.66,12.88,12.88,0,0,0,5.12,1,12.61,12.61,0,0,0,9.12-3.71,12.11,12.11,0,0,0,2.63-4,12.75,12.75,0,0,0,.93-4.84ZM148,21.84h7.68V17.9H136v3.94h7.68V42.1H148V21.84Zm31.91,16.39-2.73-2.77a14.78,14.78,0,0,1-3.14,2.3,7.94,7.94,0,0,1-3.81.85,7.51,7.51,0,0,1-3.19-.68,7.81,7.81,0,0,1-2.55-1.85,8.63,8.63,0,0,1-1.66-2.74,9.63,9.63,0,0,1-.58-3.37,9.49,9.49,0,0,1,.58-3.36,8.49,8.49,0,0,1,1.66-2.71A8.06,8.06,0,0,1,167,22.07a7.51,7.51,0,0,1,3.19-.68,8,8,0,0,1,3.7.83A13.43,13.43,0,0,1,177,24.4l2.73-3.15a17.56,17.56,0,0,0-1.83-1.52,11.72,11.72,0,0,0-2.11-1.19,12.94,12.94,0,0,0-2.51-.78,15.63,15.63,0,0,0-3-.27,12.53,12.53,0,0,0-5.05,1,12.11,12.11,0,0,0-6.52,6.69,13.46,13.46,0,0,0,0,9.78,12,12,0,0,0,6.47,6.61,12.31,12.31,0,0,0,4.9,1,14.85,14.85,0,0,0,3.1-.29,10.79,10.79,0,0,0,2.57-.86,12.59,12.59,0,0,0,2.2-1.35,15.39,15.39,0,0,0,1.95-1.78ZM203.44,30a9.29,9.29,0,0,1-.61,3.34,8.25,8.25,0,0,1-1.68,2.73,7.82,7.82,0,0,1-2.57,1.83,8.1,8.1,0,0,1-9.23-1.88,8.49,8.49,0,0,1-1.7-2.75,9.57,9.57,0,0,1,0-6.67,8.59,8.59,0,0,1,1.68-2.73,7.86,7.86,0,0,1,2.58-1.83,8.34,8.34,0,0,1,6.62,0A8.2,8.2,0,0,1,201.14,24a8.46,8.46,0,0,1,1.69,2.75,9.28,9.28,0,0,1,.61,3.33Zm28.34-4a8.34,8.34,0,0,0-.64-3.35,7.17,7.17,0,0,0-1.83-2.56,8.13,8.13,0,0,0-2.9-1.64,12.06,12.06,0,0,0-3.82-.57h-9.54V42.1h4.25V34.32h4.8a13.11,13.11,0,0,0,3.77-.53A9.35,9.35,0,0,0,229,32.21,7.21,7.21,0,0,0,231,29.62a8.08,8.08,0,0,0,.76-3.6Zm15.42,6.43,9.61-14.55h-4.87l-6.85,10.72L238.32,17.9h-5l9.61,14.66V42.1h4.28Z"/></svg>