<svg id="Layer_1" data-name="Layer 1" xmlns="http://www.w3.org/2000/svg" viewBox="0 0 450 90"><defs><style>.cls-1,.cls-2{fill:#0a2740;}.cls-2{fill-rule:evenodd;}</style></defs><path class="cls-1" d="M32.11,60.26a12.68,12.68,0,0,0,.79,4.64,8.33,8.33,0,0,0,2,3,8.89,8.89,0,0,0,2.68,1.71,12.65,12.65,0,0,0,2.83.78,16.23,16.23,0,0,0,2.45.18c.55,0,1,0,1.34-.06l.54-.06V64.74l-.33,0c-.2,0-.45,0-.76,0a6.84,6.84,0,0,1-1.47-.15A4.4,4.4,0,0,1,40.54,64a3.92,3.92,0,0,1-1.33-1.54,6.36,6.36,0,0,1-.54-2.78V52.41a9.18,9.18,0,0,0-.52-3.21,7.31,7.31,0,0,0-2.72-3.58,7.28,7.28,0,0,0-1.24-.7,3.67,3.67,0,0,0-.52-.19v-.12l.52-.23a7.24,7.24,0,0,0,1.24-.74,7.49,7.49,0,0,0,1.48-1.42A7.64,7.64,0,0,0,38.15,40a8.93,8.93,0,0,0,.52-3.14V30.29a6.25,6.25,0,0,1,.54-2.75A3.88,3.88,0,0,1,40.54,26a4.63,4.63,0,0,1,1.63-.7,6.84,6.84,0,0,1,1.47-.15c.31,0,.56,0,.76,0l.33,0V19.49l-.54,0c-.34,0-.79,0-1.34,0a16.23,16.23,0,0,0-2.45.18,13.16,13.16,0,0,0-2.83.77,8.89,8.89,0,0,0-2.68,1.71,8.33,8.33,0,0,0-2,3,12.55,12.55,0,0,0-.79,4.61v5.17a7.88,7.88,0,0,1-.54,3.06,5.26,5.26,0,0,1-2.81,2.91,5.72,5.72,0,0,1-1.29.42,4.85,4.85,0,0,1-.54.07v6.77a4.85,4.85,0,0,1,.54.07,6.82,6.82,0,0,1,1.29.41,5.48,5.48,0,0,1,1.53,1,5.11,5.11,0,0,1,1.28,1.87,7.56,7.56,0,0,1,.54,3Z"/><path class="cls-2" d="M49,40.78A4.22,4.22,0,1,1,44.76,45,4.21,4.21,0,0,1,49,40.78Z"/><path class="cls-1" d="M82.7,60.26a12.47,12.47,0,0,1-.79,4.64,8.2,8.2,0,0,1-2,3,8.89,8.89,0,0,1-2.68,1.71,12.65,12.65,0,0,1-2.83.78,16.23,16.23,0,0,1-2.45.18c-.55,0-1,0-1.34-.06l-.54-.06V64.74l.33,0c.2,0,.45,0,.76,0a6.84,6.84,0,0,0,1.47-.15A4.4,4.4,0,0,0,74.27,64a3.92,3.92,0,0,0,1.33-1.54,6.36,6.36,0,0,0,.54-2.78V52.41a9.18,9.18,0,0,1,.52-3.21A7.38,7.38,0,0,1,77.9,47a7.4,7.4,0,0,1,2.72-2.07,4.29,4.29,0,0,1,.52-.19v-.12l-.52-.23a7.64,7.64,0,0,1-1.24-.74,7.78,7.78,0,0,1-1.48-1.42A7.64,7.64,0,0,1,76.66,40a8.93,8.93,0,0,1-.52-3.14V30.29a6.25,6.25,0,0,0-.54-2.75A3.88,3.88,0,0,0,74.27,26a4.63,4.63,0,0,0-1.63-.7,6.84,6.84,0,0,0-1.47-.15c-.31,0-.56,0-.76,0l-.33,0V19.49l.54,0c.34,0,.79,0,1.34,0a16.23,16.23,0,0,1,2.45.18,13.16,13.16,0,0,1,2.83.77,8.89,8.89,0,0,1,2.68,1.71,8.2,8.2,0,0,1,2,3,12.34,12.34,0,0,1,.79,4.61v5.17a7.88,7.88,0,0,0,.54,3.06,5.33,5.33,0,0,0,1.28,1.9,5.46,5.46,0,0,0,1.53,1,5.72,5.72,0,0,0,1.29.42,4.85,4.85,0,0,0,.54.07v6.77a4.85,4.85,0,0,0-.54.07,6.82,6.82,0,0,0-1.29.41,5.63,5.63,0,0,0-1.53,1,5.11,5.11,0,0,0-1.28,1.87,7.56,7.56,0,0,0-.54,3Z"/><path class="cls-2" d="M65.84,40.78A4.22,4.22,0,1,0,70.06,45,4.22,4.22,0,0,0,65.84,40.78Z"/><path class="cls-1" d="M122.47,41.47H111.7V29.55h11.35a9.64,9.64,0,0,1,5.86,1.51,5,5,0,0,1,2,4.26,5.18,5.18,0,0,1-2.3,4.65,11.19,11.19,0,0,1-6.16,1.5Zm2.31,19H111.7V48.14h12.5c3.12,0,5.44.54,7,1.6a5.2,5.2,0,0,1,2.27,4.49,5.28,5.28,0,0,1-2.3,4.65,11.15,11.15,0,0,1-6.35,1.57ZM186.9,45.06a17.25,17.25,0,0,1-1.12,6.19,15.81,15.81,0,0,1-3.11,5.07,14.53,14.53,0,0,1-4.78,3.39,15.53,15.53,0,0,1-12.28,0,14.92,14.92,0,0,1-4.83-3.46,15.63,15.63,0,0,1-3.15-5.1,17.64,17.64,0,0,1,0-12.37,15.65,15.65,0,0,1,3.11-5.06,14.41,14.41,0,0,1,4.78-3.4,15.53,15.53,0,0,1,12.28,0,15,15,0,0,1,4.84,3.46,15.78,15.78,0,0,1,3.14,5.1,17.24,17.24,0,0,1,1.12,6.18Zm145.46-.12a23.54,23.54,0,0,0-1.73-9,22.3,22.3,0,0,0-12.18-12.34A24,24,0,0,0,309,21.79a23.67,23.67,0,0,0-9.49,1.86,23.37,23.37,0,0,0-7.43,5,22.5,22.5,0,0,0-4.88,7.4,24.15,24.15,0,0,0,0,17.95A22.77,22.77,0,0,0,292,61.41a22.49,22.49,0,0,0,7.37,5,24,24,0,0,0,9.49,1.83,23.37,23.37,0,0,0,16.93-6.9,22.47,22.47,0,0,0,4.87-7.4,23.53,23.53,0,0,0,1.73-9Zm36.28-7.12a7.33,7.33,0,0,1-2.59,5.87A10.6,10.6,0,0,1,359,45.9H349.8V29.74H359a11.36,11.36,0,0,1,7.06,2,7.17,7.17,0,0,1,2.62,6.06ZM124.07,22.56H103.94V67.44h20.77a27.17,27.17,0,0,0,6.8-.8,15.8,15.8,0,0,0,5.26-2.38,10.84,10.84,0,0,0,3.36-3.87,11.53,11.53,0,0,0,1.19-5.33,12.11,12.11,0,0,0-.64-4.07,9,9,0,0,0-1.83-3A11.51,11.51,0,0,0,136,45.74a22.76,22.76,0,0,0-3.62-1.64,16.72,16.72,0,0,0,2.4-1.54,9.63,9.63,0,0,0,2.05-2.08,10.14,10.14,0,0,0,1.41-2.79,11.11,11.11,0,0,0,.55-3.65,10,10,0,0,0-4-8.4q-4-3.08-10.77-3.08Zm71.1,22.38a23.54,23.54,0,0,0-1.73-9,22.77,22.77,0,0,0-4.81-7.37,22.49,22.49,0,0,0-7.37-5,24,24,0,0,0-9.49-1.83,23.37,23.37,0,0,0-16.93,6.9,22.63,22.63,0,0,0-4.87,7.4A24.15,24.15,0,0,0,150,54a22.77,22.77,0,0,0,4.81,7.37,22.49,22.49,0,0,0,7.37,5,24,24,0,0,0,9.49,1.83,23.37,23.37,0,0,0,16.93-6.9,22.63,22.63,0,0,0,4.87-7.4,23.53,23.53,0,0,0,1.73-9Zm26.09-15.07h14.23V22.56H199.08v7.31h14.23V67.44h7.95V29.87Zm59.17,30.39-5.06-5.13a27.74,27.74,0,0,1-5.84,4.26,14.74,14.74,0,0,1-7,1.57,14,14,0,0,1-5.93-1.25,14.44,14.44,0,0,1-4.71-3.43,15.69,15.69,0,0,1-3.08-5.09,17.89,17.89,0,0,1-1.09-6.25,17.56,17.56,0,0,1,1.09-6.22,15.31,15.31,0,0,1,3.08-5,14.65,14.65,0,0,1,4.71-3.4A14,14,0,0,1,262.48,29a14.81,14.81,0,0,1,6.86,1.54,25.39,25.39,0,0,1,5.71,4l5.06-5.83a30.46,30.46,0,0,0-3.4-2.82,21.85,21.85,0,0,0-3.91-2.21,22.69,22.69,0,0,0-4.64-1.44,27.74,27.74,0,0,0-5.61-.52,23.33,23.33,0,0,0-9.36,1.83,22.42,22.42,0,0,0-7.31,5A22.82,22.82,0,0,0,241.1,36a24.87,24.87,0,0,0,0,18.15,22.68,22.68,0,0,0,4.78,7.34,22.25,22.25,0,0,0,7.21,4.9,22.75,22.75,0,0,0,9.11,1.8,28.15,28.15,0,0,0,5.73-.55,20.66,20.66,0,0,0,4.78-1.6,24.4,24.4,0,0,0,4.07-2.5,28.51,28.51,0,0,0,3.62-3.3Zm43.66-15.2A17,17,0,0,1,323,51.25a15.81,15.81,0,0,1-3.11,5.07,14.53,14.53,0,0,1-4.78,3.39,15.51,15.51,0,0,1-12.27,0A14.86,14.86,0,0,1,298,56.22a15.63,15.63,0,0,1-3.15-5.1,17.64,17.64,0,0,1,0-12.37,15.65,15.65,0,0,1,3.11-5.06,14.41,14.41,0,0,1,4.78-3.4,15.53,15.53,0,0,1,12.28,0,15,15,0,0,1,4.84,3.46,15.78,15.78,0,0,1,3.14,5.1,17,17,0,0,1,1.12,6.18Zm52.57-7.43a15.61,15.61,0,0,0-1.19-6.22,13.29,13.29,0,0,0-3.4-4.74,15.06,15.06,0,0,0-5.38-3.05,22.22,22.22,0,0,0-7.09-1.06H341.91V67.44h7.89V53h8.91a23.89,23.89,0,0,0,7-1,16.85,16.85,0,0,0,5.71-2.92,13.57,13.57,0,0,0,3.85-4.81,15,15,0,0,0,1.41-6.66Zm28.59,11.92,17.82-27h-9L401.34,42.44,388.77,22.56h-9.29L397.3,49.74v17.7h7.95Z"/></svg>