<?xml version="1.0" encoding="UTF-8"?><svg id="Layer_2" xmlns="http://www.w3.org/2000/svg" viewBox="0 0 1571.99 1061.4"><defs><style>.cls-1{fill:#2f3c80;}.cls-2,.cls-3{fill:#5d78fe;}.cls-3{fill-rule:evenodd;}</style></defs><g id="Layer_2-2"><g><g id="Layer_1-2"><g><path class="cls-2" d="M517.48,362.92c-.29,14.1,2.04,28.13,6.89,41.37,3.89,10.13,10,19.26,17.87,26.74,6.9,6.51,14.98,11.66,23.78,15.2,8.08,3.35,16.53,5.66,25.18,6.89,7.22,1.12,14.51,1.68,21.81,1.68h16.75v-51.92h-9.71c-4.4,.03-8.79-.43-13.09-1.4-5.02-1.08-9.79-3.08-14.08-5.91-5.13-3.55-9.21-8.41-11.83-14.08-3.48-7.77-5.12-16.25-4.78-24.77v-63.61c.05-9.58-1.51-19.1-4.64-28.14-2.78-7.36-6.83-14.16-11.96-20.12-3.82-4.63-8.22-8.74-13.09-12.24-3.39-2.14-6.98-3.98-10.7-5.49-1.38-.92-2.84-1.73-4.36-2.39v-1.13c1.6-.54,3.15-1.2,4.64-1.97,3.89-1.88,7.61-4.1,11.12-6.62,4.9-3.62,9.3-7.88,13.09-12.66,4.76-5.86,8.51-12.48,11.12-19.56,3.15-9.04,4.72-18.56,4.64-28.14v-58.54c-.28-8.16,1.25-16.29,4.5-23.78,2.57-5.68,6.66-10.55,11.83-14.08,4.27-2.91,9.04-5.01,14.08-6.2,4.3-.89,8.68-1.37,13.09-1.4h9.71V0h-16.75c-7.3,0-14.6,.57-21.81,1.68-8.63,1.25-17.09,3.51-25.2,6.75-8.57,3.51-16.47,8.47-23.36,14.63-7.84,7.45-13.93,16.53-17.87,26.6-4.86,13.14-7.2,27.09-6.89,41.09v46.02c.16,9.29-1.51,18.52-4.92,27.16-2.45,6.43-6.35,12.22-11.4,16.89-4.1,3.88-8.87,6.98-14.08,9.14-3.64,1.65-7.47,2.88-11.4,3.66l-4.78,.71v60.93h4.79c3.91,.85,7.73,2.07,11.4,3.66,5.17,2.11,9.93,5.11,14.08,8.87,5.05,4.62,8.96,10.36,11.4,16.75,3.47,8.58,5.14,17.77,4.92,27.02v51.35Z"/><path class="cls-3" d="M667.63,189.55c7.43,0,14.7,2.21,20.88,6.33,6.17,4.13,10.99,10,13.84,16.86,2.85,6.87,3.59,14.42,2.14,21.71-1.45,7.29-5.03,13.98-10.28,19.24-5.25,5.25-11.95,8.84-19.24,10.28-7.29,1.45-14.85,.71-21.71-2.14-6.87-2.85-12.74-7.66-16.86-13.84-4.13-6.17-6.34-13.45-6.34-20.88,0-9.97,3.96-19.52,11-26.56,7.04-7.04,16.61-11,26.56-11h0Z"/><path class="cls-2" d="M967.8,362.92c.29,14.1-2.04,28.13-6.89,41.37-3.9,10.13-10,19.26-17.87,26.74-6.9,6.51-14.98,11.66-23.78,15.2-8.08,3.35-16.53,5.66-25.18,6.89-7.22,1.12-14.51,1.68-21.81,1.68h-16.75v-51.92h9.71c4.4,.03,8.79-.43,13.09-1.4,5.02-1.08,9.79-3.08,14.08-5.91,5.13-3.55,9.21-8.41,11.83-14.08,3.48-7.77,5.12-16.25,4.78-24.77v-63.61c-.05-9.58,1.51-19.1,4.64-28.14,2.57-7.14,6.33-13.8,11.12-19.71,3.82-4.63,8.22-8.74,13.09-12.24,3.5-2.41,7.23-4.48,11.12-6.2,1.5-.7,3.04-1.26,4.64-1.68v-1.13c-1.6-.54-3.15-1.2-4.64-1.97-3.89-1.88-7.61-4.1-11.12-6.62-10.99-8.21-19.39-19.39-24.21-32.23-3.15-9.04-4.73-18.56-4.64-28.14v-58.97c.34-8.15-1.16-16.28-4.36-23.78-2.57-5.68-6.66-10.55-11.83-14.08-4.27-2.91-9.04-5.01-14.08-6.2-4.3-.89-8.68-1.37-13.09-1.4h-9.71V0h16.75c7.3,0,14.6,.57,21.81,1.68,8.63,1.25,17.09,3.51,25.18,6.75,8.57,3.51,16.47,8.47,23.36,14.63,7.84,7.45,13.93,16.53,17.87,26.6,4.86,13.14,7.2,27.09,6.89,41.09v46.02c-.16,9.29,1.51,18.52,4.92,27.16,2.45,6.43,6.35,12.22,11.4,16.89,4.1,3.88,8.86,6.98,14.08,9.14,3.65,1.65,7.47,2.88,11.4,3.66l4.78,.71v60.93h-4.78c-3.91,.85-7.73,2.07-11.4,3.66-5.17,2.11-9.93,5.11-14.08,8.87-5.05,4.62-8.96,10.36-11.4,16.75-3.47,8.58-5.14,17.77-4.92,27.02v51.35Z"/><path class="cls-3" d="M817.79,189.55c-7.43-.03-14.72,2.15-20.91,6.26-6.2,4.11-11.03,9.97-13.9,16.84-2.87,6.86-3.63,14.42-2.2,21.72,1.43,7.29,5,14.01,10.25,19.27s11.95,8.86,19.24,10.33c7.29,1.46,14.86,.73,21.73-2.11,6.87-2.84,12.75-7.65,16.88-13.84,4.13-6.18,6.34-13.46,6.34-20.89-.03-9.92-3.99-19.45-11-26.48-7.01-7.03-16.51-11.02-26.43-11.1h.01Z"/></g></g><g><path class="cls-1" d="M230.24,850.43c8.8,12.99,13.2,27.31,13.2,42.95,0,17.32-3.84,32.41-11.52,45.25-7.69,12.85-19.27,22.77-34.78,29.75-15.5,6.99-34.71,10.47-57.61,10.47H0v-298.33H134.92c21.79,0,39.94,3.5,54.47,10.48,14.52,6.99,25.14,16.28,31.84,27.86,6.7,11.59,10.06,24.51,10.06,38.76s-3.5,27.24-10.47,38.13c-6.99,10.89-16.76,19.55-29.33,25.98,17.04,6.15,29.96,15.71,38.76,28.7Zm-173.68-123.4v77.93h74.16c14.52,0,25.56-3.56,33.1-10.68s11.31-16.97,11.31-29.54c0-11.45-3.84-20.6-11.52-27.44-7.69-6.84-18.65-10.27-32.89-10.27H56.57Zm116.48,194.21c8.38-7.12,12.57-17.25,12.57-30.38s-4.26-24.02-12.78-31.01c-8.52-6.98-20.6-10.47-36.24-10.47H56.57v82.54h80.03c15.92,0,28.07-3.56,36.45-10.68Z"/><path class="cls-1" d="M320.07,969.85c-16.62-9.36-29.54-22.55-38.76-39.59-9.22-17.04-13.83-36.87-13.83-59.5s4.61-42.46,13.83-59.5c9.22-17.04,22.14-30.23,38.76-39.6,16.62-9.36,35.82-14.04,57.61-14.04s40.99,4.68,57.61,14.04c16.62,9.36,29.47,22.56,38.55,39.6,9.07,17.04,13.62,36.87,13.62,59.5s-4.54,42.46-13.62,59.5c-9.08,17.04-21.93,30.24-38.55,39.59-16.62,9.36-35.82,14.04-57.61,14.04s-41-4.68-57.61-14.04Zm98.67-47.56c10.06-12.01,15.08-29.19,15.08-51.54s-5.03-39.52-15.08-51.54c-10.06-12.01-23.75-18.02-41.06-18.02s-31.36,6.01-41.27,18.02c-9.92,12.01-14.87,29.19-14.87,51.54s4.96,39.53,14.87,51.54c9.91,12.01,23.67,18.02,41.27,18.02s31.01-6,41.06-18.02Z"/><path class="cls-1" d="M586.85,802.87v116.9c0,6.99,1.89,11.88,5.66,14.67,3.77,2.8,10.12,4.19,19.07,4.19h18.02v40.22c-12.85,1.11-22.07,1.68-27.65,1.68-23.19,0-40.22-4.33-51.12-12.99-10.89-8.65-16.34-22.76-16.34-42.32v-122.35h-33.52v-40.22h33.52v-62.85h52.38v62.85h42.74v40.22h-42.74Z"/><path class="cls-1" d="M696.79,970.06c-16.2-9.22-28.7-22.34-37.5-39.39-8.8-17.04-13.2-37.01-13.2-59.92s4.4-42.88,13.2-59.92c8.8-17.04,21.3-30.17,37.5-39.39,16.2-9.22,34.92-13.83,56.15-13.83,18.71,0,35.26,3.35,49.65,10.06,14.38,6.7,25.98,16.34,34.78,28.91,8.8,12.57,14.17,27.23,16.13,44h-52.79c-2.51-12.85-8.03-22.55-16.55-29.12-8.52-6.56-18.93-9.85-31.22-9.85-16.2,0-29.06,5.8-38.55,17.39-9.5,11.59-14.25,28.85-14.25,51.75s4.82,40.16,14.46,51.75c9.64,11.59,22.42,17.39,38.34,17.39,12.57,0,23.32-3.49,32.26-10.48,8.94-6.98,14.38-17.32,16.34-31.01h52.79c-1.96,17.32-7.48,32.41-16.55,45.25-9.08,12.85-20.88,22.77-35.41,29.75-14.53,6.98-31.01,10.48-49.44,10.48-21.23,0-39.95-4.61-56.15-13.83Z"/><path class="cls-1" d="M929.67,969.85c-16.62-9.36-29.54-22.55-38.76-39.59-9.22-17.04-13.83-36.87-13.83-59.5s4.61-42.46,13.83-59.5c9.22-17.04,22.14-30.23,38.76-39.6,16.62-9.36,35.82-14.04,57.61-14.04s40.99,4.68,57.61,14.04c16.62,9.36,29.47,22.56,38.55,39.6,9.07,17.04,13.62,36.87,13.62,59.5s-4.54,42.46-13.62,59.5c-9.08,17.04-21.93,30.24-38.55,39.59-16.62,9.36-35.82,14.04-57.61,14.04s-41-4.68-57.61-14.04Zm98.67-47.56c10.06-12.01,15.08-29.19,15.08-51.54s-5.03-39.52-15.08-51.54c-10.06-12.01-23.75-18.02-41.06-18.02s-31.36,6.01-41.27,18.02c-9.92,12.01-14.87,29.19-14.87,51.54s4.96,39.53,14.87,51.54c9.91,12.01,23.67,18.02,41.27,18.02s31.01-6,41.06-18.02Z"/><path class="cls-1" d="M1303.37,771.45c14.67,9.22,25.91,22.42,33.73,39.6,7.82,17.18,11.73,37.08,11.73,59.71s-3.92,42.53-11.73,59.71c-7.82,17.18-19.06,30.38-33.73,39.6s-31.78,13.83-51.33,13.83c-14.81,0-27.8-2.87-38.97-8.59-11.18-5.72-20.53-13.89-28.07-24.51v110.2h-52.79v-298.33h50.7v31.01c7.54-11.45,17.11-20.32,28.7-26.61,11.59-6.29,25.07-9.43,40.43-9.43,19.55,0,36.66,4.61,51.33,13.83Zm-23.04,150.21c9.91-12.43,14.88-29.96,14.88-52.58s-4.89-39.24-14.67-50.7c-9.78-11.45-23.46-17.18-41.06-17.18s-30.94,5.94-40.85,17.81c-9.92,11.88-14.87,29.12-14.87,51.75s4.96,39.88,14.87,51.75c9.91,11.88,23.53,17.81,40.85,17.81s30.93-6.21,40.85-18.65Z"/><path class="cls-1" d="M1571.99,762.65l-83.38,233.8c-5.87,16.2-12.64,28.98-20.32,38.34-7.69,9.36-17.32,16.13-28.91,20.32-11.59,4.19-26.19,6.29-43.79,6.29-8.66,0-16.34-.42-23.05-1.26v-41.48h20.11c12.01,0,20.95-3.29,26.82-9.85,5.87-6.57,8.8-14.88,8.8-24.93s-3.35-24.58-10.06-43.58l-62.85-177.66h56.98l17.6,54.05c12.84,40.79,24.3,81.01,34.36,120.67,9.22-34.36,20.81-74.44,34.78-120.25l17.6-54.47h55.31Z"/></g></g></g></svg>